<svg xmlns="http://www.w3.org/2000/svg" width="720" height="400" viewBox="0 0 720 400" role="img" aria-label="Economia Meta por técnica — cenários DUPLICATION" font-family="Inter, system-ui, sans-serif">
<rect width="720" height="400" fill="#fcfcfb"/>
<text x="72" y="26" font-size="16" font-weight="600" fill="#0b0b0b">Economia Meta por técnica — cenários DUPLICATION</text>
<text x="72" y="46" font-size="12" fill="#52514e">Simulado · 50.000 eventos · média de 3 seed(s) · tarifas DEMO</text>
<line x1="72" x2="570" y1="344" y2="344" stroke="#e4e3df" stroke-width="1"/>
<text x="64" y="348" font-size="11" text-anchor="end" fill="#52514e">0%</text>
<line x1="72" x2="570" y1="274" y2="274" stroke="#e4e3df" stroke-width="1"/>
<text x="64" y="278" font-size="11" text-anchor="end" fill="#52514e">6,3%</text>
<line x1="72" x2="570" y1="204" y2="204" stroke="#e4e3df" stroke-width="1"/>
<text x="64" y="208" font-size="11" text-anchor="end" fill="#52514e">12,5%</text>
<line x1="72" x2="570" y1="134" y2="134" stroke="#e4e3df" stroke-width="1"/>
<text x="64" y="138" font-size="11" text-anchor="end" fill="#52514e">18,8%</text>
<line x1="72" x2="570" y1="64" y2="64" stroke="#e4e3df" stroke-width="1"/>
<text x="64" y="68" font-size="11" text-anchor="end" fill="#52514e">25%</text>
<text x="72" y="362" font-size="11" text-anchor="middle" fill="#52514e">2%</text>
<text x="237.99999999999997" y="362" font-size="11" text-anchor="middle" fill="#52514e">8%</text>
<text x="570" y="362" font-size="11" text-anchor="middle" fill="#52514e">20%</text>
<line x1="72" x2="570" y1="344" y2="344" stroke="#52514e" stroke-width="1"/>
<text x="321" y="386" font-size="12" text-anchor="middle" fill="#52514e">Taxa de duplicação na origem</text>
<text transform="translate(18 204) rotate(-90)" font-size="12" text-anchor="middle" fill="#52514e">Economia Meta vs A (%)</text>
<path d="M72.0,286.6 L238.0,257.4 L570.0,205.8" fill="none" stroke="#2a78d6" stroke-width="2" stroke-linejoin="round" stroke-linecap="round"/>
<circle cx="72.0" cy="286.6" r="4" fill="#2a78d6" stroke="#fcfcfb" stroke-width="2"><title>B · deduplicação — 2%: 5,1%</title></circle>
<circle cx="238.0" cy="257.4" r="4" fill="#2a78d6" stroke="#fcfcfb" stroke-width="2"><title>B · deduplicação — 8%: 7,7%</title></circle>
<circle cx="570.0" cy="205.8" r="4" fill="#2a78d6" stroke="#fcfcfb" stroke-width="2"><title>B · deduplicação — 20%: 12,3%</title></circle>
<text x="580" y="209.75466666666665" font-size="12" fill="#0b0b0b">B · deduplicação</text>
<path d="M72.0,192.9 L238.0,167.1 L570.0,122.5" fill="none" stroke="#eb6834" stroke-width="2" stroke-linejoin="round" stroke-linecap="round"/>
<circle cx="72.0" cy="192.9" r="4" fill="#eb6834" stroke="#fcfcfb" stroke-width="2"><title>D · + supersession e agregação — 2%: 13,5%</title></circle>
<circle cx="238.0" cy="167.1" r="4" fill="#eb6834" stroke="#fcfcfb" stroke-width="2"><title>D · + supersession e agregação — 8%: 15,8%</title></circle>
<circle cx="570.0" cy="122.5" r="4" fill="#eb6834" stroke="#fcfcfb" stroke-width="2"><title>D · + supersession e agregação — 20%: 19,8%</title></circle>
<text x="580" y="126.53866666666673" font-size="12" fill="#0b0b0b">D · + supersession e agregação</text>
<path d="M72.0,174.8 L238.0,150.3 L570.0,107.3" fill="none" stroke="#1baf7a" stroke-width="2" stroke-linejoin="round" stroke-linecap="round"/>
<circle cx="72.0" cy="174.8" r="4" fill="#1baf7a" stroke="#fcfcfb" stroke-width="2"><title>E · + otimizador de preço — 2%: 15,1%</title></circle>
<circle cx="238.0" cy="150.3" r="4" fill="#1baf7a" stroke="#fcfcfb" stroke-width="2"><title>E · + otimizador de preço — 8%: 17,3%</title></circle>
<circle cx="570.0" cy="107.3" r="4" fill="#1baf7a" stroke="#fcfcfb" stroke-width="2"><title>E · + otimizador de preço — 20%: 21,1%</title></circle>
<text x="580" y="111.26933333333332" font-size="12" fill="#0b0b0b">E · + otimizador de preço</text>
<rect x="594" y="64" width="12" height="3" rx="1.5" fill="#2a78d6"/>
<text x="612" y="69" font-size="11" fill="#52514e">B · deduplicação</text>
<rect x="594" y="84" width="12" height="3" rx="1.5" fill="#eb6834"/>
<text x="612" y="89" font-size="11" fill="#52514e">D · + supersession e agregação</text>
<rect x="594" y="104" width="12" height="3" rx="1.5" fill="#1baf7a"/>
<text x="612" y="109" font-size="11" fill="#52514e">E · + otimizador de preço</text>
</svg>